<svg width="19" height="24" viewBox="0 0 19 24" fill="none" xmlns="http://www.w3.org/2000/svg">
<g clip-path="url(#clip0_102_72)">
<path d="M18.3033 2.57153L16.9113 0.857023C16.4478 0.285674 15.8399 0 15.2321 0C14.6242 0 14.0164 0.285674 13.5525 0.856566L0.475916 16.9631L0.00462689 22.1839C-0.0547481 22.8411 0.365701 23.4024 0.88783 23.4024C0.920858 23.4024 0.953885 23.4002 0.987654 23.3956L5.22332 22.8192L18.3036 6.70809C19.231 5.56585 19.231 3.71377 18.3033 2.57153ZM4.67818 21.4224L1.2259 21.8936L1.61035 17.635L11.4031 5.57316L14.4747 9.3564L4.67818 21.4224ZM17.4639 5.67418L15.3141 8.32204L12.2426 4.53879L14.3923 1.89094C14.6164 1.61486 14.9148 1.46265 15.2321 1.46265C15.5494 1.46265 15.8474 1.61486 16.0719 1.89094L17.4639 3.60544C17.9266 4.17587 17.9266 5.10374 17.4639 5.67418Z" fill="#181203"/>
</g>
<defs>
<clipPath id="clip0_102_72">
<rect width="19" height="23.4024" fill="white"/>
</clipPath>
</defs>
</svg>
